# xmcd CD database file
#
# Track frame offsets:
#	150
#	17388
#	34978
#	55373
#	77930
#	93043
#	106733
#	127050
#	145733
#	171908
#	190360
#	212893
#	242755
#
# Disc length: 3474 seconds
#
# Revision: 4
# Processed by: cddbd v1.5.2PL0 Copyright (c) Steve Scherf et al.
# Submitted via: CDex 1.51
#
DISCID=b10d900d
DTITLE=木村カエラ - Circle
DYEAR=2006
DGENRE=J_Rock
TTITLE0=リルラ　リルハ
TTITLE1=Tea Cup
TTITLE2=Ｉ Hｕｇ
TTITLE3=Beat (Album ver.)
TTITLE4=トゥリル　トゥリル　リカー
TTITLE5=Twinkle (NANA ver.)
TTITLE6=You
TTITLE7=Pioneer
TTITLE8=Deep Blue Sky
TTITLE9=Dancing Now
TTITLE10=Circle
TTITLE11=はちみつ
TTITLE12=C-hildren
EXTD=YEAR: 2006
EXTT0=
EXTT1=
EXTT2=
EXTT3=
EXTT4=
EXTT5=
EXTT6=
EXTT7=
EXTT8=
EXTT9=
EXTT10=
EXTT11=
EXTT12=
PLAYORDER=
